<?xml version="1.0" encoding="utf-8"?>
<!-- Generator: Adobe Illustrator 15.1.0, SVG Export Plug-In . SVG Version: 6.00 Build 0)  -->
<!DOCTYPE svg PUBLIC "-//W3C//DTD SVG 1.1//EN" "http://www.w3.org/Graphics/SVG/1.1/DTD/svg11.dtd">
<svg version="1.1" id="Layer_1" xmlns="http://www.w3.org/2000/svg" xmlns:xlink="http://www.w3.org/1999/xlink" x="0px" y="0px"
	 width="792px" height="612px" viewBox="0 0 792 612" enable-background="new 0 0 792 612" xml:space="preserve">
<g>
	<path fill="#FFFFFF" d="M396,24.399c-159.44,0-288.73,129.261-288.73,288.73c0,127.573,82.73,235.797,197.451,273.979
		c14.425,2.678,19.723-6.263,19.723-13.889c0-6.886-0.268-29.63-0.392-53.756c-80.325,17.466-97.274-34.066-97.274-34.066
		c-13.134-33.373-32.059-42.247-32.059-42.247c-26.201-17.92,1.975-17.548,1.975-17.548c28.989,2.032,44.26,29.754,44.26,29.754
		c25.752,44.131,67.545,31.375,84.021,24.002c2.591-18.661,10.074-31.403,18.331-38.613
		c-64.131-7.291-131.551-32.054-131.551-142.687c0-31.522,11.284-57.279,29.754-77.504c-3.002-7.268-12.886-36.634,2.792-76.404
		c0,0,24.241-7.76,79.417,29.596c23.036-6.402,47.741-9.62,72.283-9.729c24.527,0.11,49.247,3.318,72.326,9.72
		c55.108-37.356,79.32-29.596,79.32-29.596c15.717,39.766,5.834,69.137,2.836,76.405c18.513,20.225,29.715,45.981,29.715,77.504
		c0,110.896-67.544,135.31-131.838,142.462c10.361,8.96,19.589,26.536,19.589,53.469c0,38.633-0.335,69.726-0.335,79.235
		c0,7.684,5.202,16.687,19.833,13.851c114.654-38.221,197.289-146.411,197.289-273.937C684.73,153.669,555.455,24.403,396,24.403
		V24.399z"/>
	<path fill="#FFFFFF" d="M216.626,438.947c-0.636,1.435-2.893,1.865-4.948,0.885c-2.104-0.938-3.275-2.893-2.596-4.332
		c0.621-1.482,2.883-1.889,4.972-0.898c2.104,0.941,3.299,2.916,2.568,4.351L216.626,438.947z M228.322,451.995
		c-1.373,1.277-4.064,0.685-5.891-1.339c-1.894-2.008-2.247-4.699-0.846-5.995c1.425-1.271,4.035-0.669,5.929,1.339
		c1.884,2.037,2.257,4.704,0.812,6L228.322,451.995z M239.71,468.62c-1.769,1.233-4.667,0.081-6.455-2.486
		c-1.769-2.572-1.769-5.656,0.048-6.885c1.783-1.234,4.638-0.12,6.455,2.424c1.759,2.605,1.759,5.689-0.048,6.942V468.62z
		 M255.302,484.689c-1.578,1.745-4.954,1.276-7.42-1.1c-2.52-2.328-3.223-5.642-1.64-7.382c1.606-1.75,4.997-1.263,7.478,1.1
		c2.52,2.323,3.28,5.642,1.592,7.377L255.302,484.689z M276.818,494.018c-0.703,2.262-3.945,3.29-7.22,2.324
		c-3.266-0.99-5.403-3.634-4.733-5.92c0.669-2.28,3.935-3.347,7.229-2.318C275.359,489.089,277.497,491.718,276.818,494.018z
		 M300.452,495.744c0.081,2.381-2.692,4.351-6.12,4.398c-3.457,0.081-6.254-1.851-6.288-4.193c0-2.404,2.716-4.351,6.168-4.418
		c3.428-0.062,6.244,1.851,6.244,4.208L300.452,495.744z M322.436,492.005c0.411,2.319-1.975,4.705-5.384,5.341
		c-3.347,0.621-6.455-0.822-6.885-3.122c-0.411-2.381,2.018-4.767,5.365-5.384c3.414-0.588,6.474,0.812,6.904,3.17V492.005z"/>
</g>
</svg>
